<svg width="30" height="30" viewBox="0 0 30 30" fill="none" xmlns="http://www.w3.org/2000/svg">
<rect width="30" height="30" fill="#F7D303"/>
<path d="M15.2905 6.12233C15.213 6.04382 15.1099 6 15.0026 6C14.8953 6 14.7922 6.04382 14.7147 6.12233L5.13015 15.8175C5.08945 15.8587 5.05707 15.9083 5.03496 15.9631C5.01286 16.018 5.0015 16.077 5.00156 16.1367L5 25.2359C5 25.7038 5.17552 26.1525 5.48795 26.4833C5.80038 26.8141 6.22413 27 6.66597 27H11.6691C11.89 27 12.1019 26.9071 12.2581 26.7417C12.4143 26.5762 12.5021 26.3519 12.5021 26.118V18.6207C12.5021 18.5037 12.546 18.3916 12.6241 18.3089C12.7022 18.2262 12.8081 18.1797 12.9186 18.1797H17.0835C17.194 18.1797 17.2999 18.2262 17.378 18.3089C17.4561 18.3916 17.5 18.5037 17.5 18.6207V26.118C17.5 26.3519 17.5878 26.5762 17.744 26.7417C17.9002 26.9071 18.1121 27 18.333 27H23.334C23.7759 27 24.1996 26.8141 24.512 26.4833C24.8245 26.1525 25 25.7038 25 25.2359V16.1367C25.0001 16.077 24.9887 16.018 24.9666 15.9631C24.9445 15.9083 24.9121 15.8587 24.8714 15.8175L15.2905 6.12233Z" fill="black"/>
<path d="M26.7455 14.4903L23.0055 10.6145V4.73316C23.0055 4.50333 22.9212 4.28291 22.7712 4.1204C22.6211 3.95788 22.4176 3.86658 22.2055 3.86658H19.8055C19.5933 3.86658 19.3898 3.95788 19.2398 4.1204C19.0898 4.28291 19.0055 4.50333 19.0055 4.73316V6.46632L16.1095 3.46687C15.8385 3.17007 15.4355 3 15 3C14.566 3 14.164 3.17007 13.893 3.46741L3.25802 14.4892C2.94702 14.8142 2.90802 15.3488 3.19102 15.7008C3.26208 15.7897 3.3491 15.862 3.44677 15.9132C3.54444 15.9645 3.65072 15.9937 3.75914 15.9991C3.86756 16.0045 3.97586 15.9859 4.07744 15.9445C4.17902 15.9031 4.27176 15.8397 4.35002 15.7582L14.725 5.01913C14.7994 4.942 14.8985 4.89895 15.0015 4.89895C15.1045 4.89895 15.2035 4.942 15.278 5.01913L25.654 15.7582C25.8068 15.917 26.0115 16.0037 26.2233 15.9992C26.435 15.9947 26.6364 15.8995 26.7835 15.7344C27.0905 15.3899 27.065 14.8212 26.7455 14.4903Z" fill="black"/>
</svg>
