<svg width="22" height="22" viewBox="0 0 22 22" fill="none" xmlns="http://www.w3.org/2000/svg">
<path d="M9.1507 16.433C10.6906 16.433 11.939 17.6792 11.939 19.2165C11.939 20.7538 10.6907 22 9.15072 22C7.61077 22 6.3624 20.7538 6.3624 19.2165C6.3624 17.6792 7.61075 16.433 9.1507 16.433ZM9.1507 20.087C9.63227 20.087 10.0227 19.6973 10.0227 19.2165C10.0227 18.7358 9.63225 18.3461 9.1507 18.3461C8.66913 18.3461 8.27874 18.7358 8.27874 19.2165C8.27874 19.6973 8.66915 20.087 9.1507 20.087ZM17.3815 16.433C18.9215 16.433 20.1699 17.6792 20.1699 19.2165C20.1699 20.7538 18.9215 22 17.3815 22C15.8416 22 14.5932 20.7538 14.5932 19.2165C14.5932 17.6792 15.8416 16.433 17.3815 16.433H17.3815ZM17.3815 20.087C17.8631 20.087 18.2535 19.6973 18.2535 19.2165C18.2535 18.7358 17.8631 18.3461 17.3815 18.3461C16.8999 18.3461 16.5095 18.7358 16.5095 19.2165C16.5095 19.6973 16.8999 20.087 17.3815 20.087ZM17.3623 18.3461H7.77976C5.98844 18.3461 4.5363 16.8965 4.5363 15.1083C4.5363 13.6084 5.55789 12.3467 6.94437 11.9788L6.96697 11.9737L4.26011 3.15651C4.02401 2.42944 3.35167 1.913 2.55847 1.913H0V0H2.56324C4.20815 0 5.60191 1.07323 6.08012 2.55652L6.08739 2.58262V2.59218L9.52345 13.7835H7.78051C7.04759 13.7835 6.45342 14.3766 6.45342 15.1083C6.45342 15.84 7.04757 16.4331 7.78051 16.4331H17.3624L17.3623 18.3461ZM19.9341 13.7834H8.23079V11.8705H18.4892L20.0836 6.30349V5.56701H6.41026V3.65394H22V6.57132L19.9341 13.7834Z" fill="black"/>
</svg>
