<svg width="23" height="23" viewBox="0 0 23 23" fill="none" xmlns="http://www.w3.org/2000/svg">
<path d="M9.40909 20.8095H13.5909C13.5909 21.3905 13.3706 21.9476 12.9785 22.3584C12.5864 22.7692 12.0545 23 11.5 23C10.9455 23 10.4136 22.7692 10.0215 22.3584C9.62938 21.9476 9.40909 21.3905 9.40909 20.8095ZM20.9091 18.619V19.7143H2.09091V18.619L4.18182 16.4286V9.85714C4.18182 6.46191 6.30409 3.4719 9.40909 2.5081C9.40909 2.39857 9.40909 2.3 9.40909 2.19048C9.40909 1.60953 9.62938 1.05237 10.0215 0.641576C10.4136 0.230782 10.9455 0 11.5 0C12.0545 0 12.5864 0.230782 12.9785 0.641576C13.3706 1.05237 13.5909 1.60953 13.5909 2.19048V2.5081C16.6959 3.4719 18.8182 6.46191 18.8182 9.85714V16.4286L20.9091 18.619ZM16.7273 9.85714C16.7273 8.40477 16.1765 7.01188 15.1962 5.98489C14.2159 4.95791 12.8864 4.38095 11.5 4.38095C10.1136 4.38095 8.78406 4.95791 7.80376 5.98489C6.82346 7.01188 6.27273 8.40477 6.27273 9.85714V17.5238H16.7273V9.85714ZM19.6023 1.30333L18.1177 2.85857C19.9055 4.70952 20.9091 7.22857 20.9091 9.85714H23C23 6.6481 21.7873 3.55952 19.6023 1.30333ZM0 9.85714H2.09091C2.09091 7.22857 3.09455 4.70952 4.88227 2.85857L3.39773 1.30333C1.21273 3.55952 0 6.6481 0 9.85714Z" fill="black"/>
</svg>
